HIERARCHY
ROOT Hips
{
	OFFSET -0.001795 -0.223333 0.028219
	CHANNELS 6 Xposition Yposition Zposition Zrotation Yrotation Xrotation 
	JOINT LeftUpLeg
	{
		OFFSET 0.069520 -0.091406 -0.006815
		CHANNELS 3 Zrotation Yrotation Xrotation
		JOINT LeftLeg
		{
			OFFSET 0.034277 -0.375199 -0.004496
			CHANNELS 3 Zrotation Yrotation Xrotation
			JOINT LeftFoot
			{
				OFFSET -0.013596 -0.397961 -0.043693
				CHANNELS 3 Zrotation Yrotation Xrotation
				JOINT LeftToe
				{
					OFFSET 0.026358 -0.055791 0.119288
					CHANNELS 3 Zrotation Yrotation Xrotation
					End Site
					{
						OFFSET 0.000000 0.000000 0.000000
					}
				}
			}
		}
	}
	JOINT RightUpLeg
	{
		OFFSET -0.067670 -0.090522 -0.004320
		CHANNELS 3 Zrotation Yrotation Xrotation
		JOINT RightLeg
		{
			OFFSET -0.038290 -0.382569 -0.008850
			CHANNELS 3 Zrotation Yrotation Xrotation
			JOINT RightFoot
			{
				OFFSET 0.015774 -0.398415 -0.042312
				CHANNELS 3 Zrotation Yrotation Xrotation
				JOINT RightToe
				{
					OFFSET -0.025372 -0.048144 0.123348
					CHANNELS 3 Zrotation Yrotation Xrotation
					End Site
					{
						OFFSET 0.000000 0.000000 0.000000
					}
				}
			}
		}
	}
	JOINT Spine
	{
		OFFSET -0.002533 0.108963 -0.026696
		CHANNELS 3 Zrotation Yrotation Xrotation
		JOINT Spine1
		{
			OFFSET 0.005487 0.135180 0.001092
			CHANNELS 3 Zrotation Yrotation Xrotation
			JOINT Spine2
			{
				OFFSET 0.001457 0.052922 0.025425
				CHANNELS 3 Zrotation Yrotation Xrotation
				JOINT Neck
				{
					OFFSET -0.002778 0.213870 -0.042857
					CHANNELS 3 Zrotation Yrotation Xrotation
					JOINT Head
					{
						OFFSET 0.005152 0.064970 0.051349
						CHANNELS 3 Zrotation Yrotation Xrotation
						End Site
						{
							OFFSET 0.000000 0.000000 0.000000
						}
					}
				}
				JOINT LeftShoulder
				{
					OFFSET 0.078845 0.121749 -0.034090
					CHANNELS 3 Zrotation Yrotation Xrotation
					JOINT LeftArm
					{
						OFFSET 0.090977 0.030469 -0.008868
						CHANNELS 3 Zrotation Yrotation Xrotation
						JOINT LeftForeArm
						{
							OFFSET 0.259612 -0.012772 -0.027456
							CHANNELS 3 Zrotation Yrotation Xrotation
							JOINT LeftHand
							{
								OFFSET 0.249234 0.008986 -0.001171
								CHANNELS 3 Zrotation Yrotation Xrotation
								End Site
								{
									OFFSET 0.000000 0.000000 0.000000
								}
							}
						}
					}
				}
				JOINT RightShoulder
				{
					OFFSET -0.081759 0.118833 -0.038615
					CHANNELS 3 Zrotation Yrotation Xrotation
					JOINT RightArm
					{
						OFFSET -0.096012 0.032551 -0.009143
						CHANNELS 3 Zrotation Yrotation Xrotation
						JOINT RightForeArm
						{
							OFFSET -0.253742 -0.013329 -0.021401
							CHANNELS 3 Zrotation Yrotation Xrotation
							JOINT RightHand
							{
								OFFSET -0.255298 0.007772 -0.005559
								CHANNELS 3 Zrotation Yrotation Xrotation
								End Site
								{
									OFFSET 0.000000 0.000000 0.000000
								}
							}
						}
					}
				}
			}
		}
	}
}
MOTION
Frames: 18
Frame Time: 0.050000
-0.059620 0.940618 -0.062658 -4.231516 28.950713 4.162717 7.222940 -0.972131 -10.348076 -1.543450 0.085021 -3.892870 0.133925 6.762137 9.815330 0.000000 0.000000 0.000000 -1.661086 0.635390 -9.489821 0.257218 -0.240655 -5.278104 3.215061 4.835970 13.582953 0.000000 0.000000 0.000000 0.913862 -1.400287 15.027083 -5.613768 2.071715 3.974018 -8.542236 5.564737 4.804358 7.735079 -0.436385 -20.716177 0.000000 0.000000 0.000000 -28.889360 -37.164171 12.879524 -32.469244 -23.607249 4.542139 3.178874 -53.338795 -1.911403 0.000000 0.000000 0.000000 15.561906 26.305859 18.004989 40.977847 37.531887 8.104353 -17.950874 46.414259 -3.932786 0.000000 0.000000 0.000000 
-0.059397 0.940801 -0.063065 -4.042870 29.410596 4.033544 6.958079 -0.957139 -10.137015 -1.522023 0.081017 -3.896300 -0.040715 6.369725 9.544625 0.000000 0.000000 0.000000 -2.069392 0.573768 -9.317641 0.359604 -0.240156 -5.018607 2.843973 4.250289 13.374232 0.000000 0.000000 0.000000 0.930793 -1.455954 15.347233 -5.628086 2.046577 4.224124 -8.557931 5.412168 4.639705 7.812708 -0.491670 -20.665515 0.000000 0.000000 0.000000 -28.922286 -37.125389 12.821307 -33.305142 -23.386968 4.638584 4.344788 -55.406616 -2.777374 0.000000 0.000000 0.000000 14.691574 26.233261 17.551377 40.385877 37.831744 8.182583 -18.373992 47.263877 -4.160380 0.000000 0.000000 0.000000 
-0.058751 0.940418 -0.063259 -3.749211 29.556529 4.096238 6.636949 -0.949952 -10.120945 -1.676030 0.081068 -3.628701 -0.125649 5.979037 9.078726 0.000000 0.000000 0.000000 -2.472563 0.525395 -9.372035 0.445326 -0.228952 -4.545121 2.562676 3.816901 12.983442 0.000000 0.000000 0.000000 0.831282 -1.473459 15.579169 -5.665896 2.099902 3.772703 -8.416667 5.445886 5.025804 7.907902 -0.550029 -20.599496 0.000000 0.000000 0.000000 -29.503011 -36.558659 12.402549 -33.761004 -22.678382 4.556711 3.475275 -57.485066 -2.512878 0.000000 0.000000 0.000000 14.212834 25.943854 17.186679 40.314688 37.580838 8.106395 -18.461370 49.501583 -4.313414 0.000000 0.000000 0.000000 
-0.057860 0.940245 -0.063413 -3.484238 29.751715 4.345291 6.311358 -0.956533 -10.261267 -1.632803 0.079481 -3.623864 -0.129747 5.946105 8.999679 0.000000 0.000000 0.000000 -3.115204 0.447925 -9.445194 0.739008 -0.255203 -4.288764 2.303592 3.393384 12.730106 0.000000 0.000000 0.000000 0.826154 -1.451520 15.409263 -5.744665 2.116515 3.863941 -8.338819 5.325919 4.951696 7.917642 -0.541390 -20.705242 0.000000 0.000000 0.000000 -29.726500 -36.032000 12.061740 -34.008698 -21.805056 4.376584 2.315880 -59.613939 -2.029275 0.000000 0.000000 0.000000 14.006004 25.745013 16.967295 40.194469 37.130058 7.922350 -17.067968 51.715896 -3.811128 0.000000 0.000000 0.000000 
-0.056827 0.939651 -0.063531 -3.378663 29.489520 4.193953 6.073540 -0.923928 -9.939415 -1.449348 0.080302 -3.693744 -0.068155 5.914275 8.806192 0.000000 0.000000 0.000000 -3.535917 0.391173 -9.181568 1.032719 -0.288795 -4.177648 2.339207 3.463414 12.459303 0.000000 0.000000 0.000000 0.868039 -1.460435 15.473653 -5.837008 2.164487 3.931129 -8.128004 5.604134 4.861028 8.104101 -0.718364 -20.305279 0.000000 0.000000 0.000000 -30.451398 -35.105749 11.336517 -33.854857 -20.112044 4.012825 -0.040019 -61.558275 -0.766905 0.000000 0.000000 0.000000 14.124455 25.663627 16.986364 41.138337 36.919656 8.107943 -15.828945 54.167236 -3.286265 0.000000 0.000000 0.000000 
-0.055887 0.939038 -0.063614 -3.088187 29.240481 4.046202 5.840687 -0.891137 -9.614679 -1.690529 0.084260 -3.761329 0.232416 6.253863 8.603326 0.000000 0.000000 0.000000 -4.008038 0.326328 -8.892340 1.188584 -0.301556 -3.957557 2.362712 3.584593 11.804237 0.000000 0.000000 0.000000 0.805064 -1.432207 15.407984 -5.939717 2.178849 4.443439 -7.733101 5.871940 4.581058 8.289604 -0.873064 -20.076872 0.000000 0.000000 0.000000 -30.999959 -34.138984 10.619261 -33.396363 -18.569331 3.632373 -2.713413 -63.026712 0.850290 0.000000 0.000000 0.000000 14.507341 25.593083 17.083784 41.648536 36.536886 8.077165 -13.692669 56.513996 -2.271959 0.000000 0.000000 0.000000 
-0.055098 0.938466 -0.063754 -3.070049 28.935454 3.833682 5.759896 -0.847296 -9.070803 -1.594087 0.085690 -4.049664 0.266761 6.350162 8.723257 0.000000 0.000000 0.000000 -4.176510 0.296345 -8.417245 1.457759 -0.348051 -4.294630 2.481386 3.819113 11.540896 0.000000 0.000000 0.000000 0.946436 -1.404774 15.105004 -5.944389 2.149202 4.939584 -7.494013 6.168076 4.331567 8.554218 -1.057964 -19.902737 0.000000 0.000000 0.000000 -31.187015 -33.161862 9.828012 -33.267947 -16.968126 3.264467 -5.027694 -63.897494 2.258186 0.000000 0.000000 0.000000 14.960837 25.505958 17.235778 42.417747 36.115355 8.083573 -11.079827 58.806472 -0.847674 0.000000 0.000000 0.000000 
-0.054629 0.937834 -0.064051 -2.969514 28.815351 3.621862 5.656395 -0.815672 -8.682691 -1.623961 0.086541 -4.153734 0.385700 6.555962 8.778706 0.000000 0.000000 0.000000 -4.252967 0.272115 -7.943506 1.493416 -0.355118 -4.359298 2.441875 3.810632 11.109886 0.000000 0.000000 0.000000 1.102797 -1.431855 15.157318 -5.981390 2.184768 4.817866 -7.219090 6.293937 4.314736 8.894232 -1.265236 -19.841810 0.000000 0.000000 0.000000 -31.423848 -32.352854 9.193130 -32.729591 -15.494111 2.880535 -8.014587 -64.755599 4.201713 0.000000 0.000000 0.000000 15.466408 25.176367 17.260677 43.296432 35.333207 7.943275 -8.200151 60.951977 0.899334 0.000000 0.000000 0.000000 
-0.054508 0.937761 -0.064604 -2.829872 28.664218 3.700944 5.403040 -0.805963 -8.652921 -1.639121 0.088592 -3.986191 0.629263 6.736813 8.426510 0.000000 0.000000 0.000000 -4.324624 0.268802 -8.030422 1.673585 -0.371865 -4.150815 2.276306 3.577634 10.526415 0.000000 0.000000 0.000000 1.167234 -1.400813 14.887353 -5.859825 2.143445 4.679835 -7.078070 6.436003 4.470261 9.059700 -1.300068 -20.080438 0.000000 0.000000 0.000000 -31.405320 -32.027687 8.907841 -32.432085 -14.642727 2.647768 -9.496347 -64.885833 5.170835 0.000000 0.000000 0.000000 16.242388 24.636952 17.318869 43.791814 34.398213 7.559620 -5.376797 62.719114 2.774138 0.000000 0.000000 0.000000 
-0.054669 0.937697 -0.065286 -2.892768 28.468712 3.836896 5.337882 -0.817075 -8.840249 -1.404084 0.088407 -3.885247 0.874795 7.263007 8.685521 0.000000 0.000000 0.000000 -4.255120 0.289720 -8.257848 1.822336 -0.387861 -4.052113 2.200150 3.387129 10.650057 0.000000 0.000000 0.000000 1.431815 -1.423943 14.761346 -5.660406 2.062599 4.562137 -7.050770 6.327267 4.351931 9.646115 -1.556755 -20.512787 0.000000 0.000000 0.000000 -31.432272 -31.579025 8.673116 -31.807823 -14.088847 2.448203 -11.844695 -64.708028 6.752086 0.000000 0.000000 0.000000 16.742712 24.275828 17.298510 44.234651 33.557770 7.257935 -1.109689 64.231395 5.598695 0.000000 0.000000 0.000000 
-0.055085 0.937964 -0.065992 -2.629108 28.296302 4.033215 5.032649 -0.818367 -8.961285 -1.511811 0.090902 -3.583551 1.397310 7.912171 8.379276 0.000000 0.000000 0.000000 -4.404954 0.287187 -8.703846 2.029824 -0.395443 -3.248431 2.194113 3.464213 10.022202 0.000000 0.000000 0.000000 1.486403 -1.409378 14.622664 -5.383464 1.914343 4.806327 -7.185147 6.336544 4.340140 9.873602 -1.642094 -20.749500 0.000000 0.000000 0.000000 -31.340085 -31.782338 8.879200 -31.232119 -14.018717 2.369858 -12.272039 -64.217464 7.052040 0.000000 0.000000 0.000000 17.247566 23.835016 17.248284 44.668001 32.892828 7.014831 0.995058 65.152026 7.134516 0.000000 0.000000 0.000000 
-0.055614 0.938228 -0.066534 -2.686753 27.821257 4.032112 4.941919 -0.801272 -8.792858 -1.257393 0.091454 -3.681421 1.895222 8.554581 8.165776 0.000000 0.000000 0.000000 -4.230043 0.319720 -8.731777 2.060053 -0.395489 -3.148634 2.452172 3.916739 10.097455 0.000000 0.000000 0.000000 1.612985 -1.430681 14.681941 -5.222891 1.828255 5.086366 -7.111926 5.788759 4.009451 10.253959 -1.895808 -20.971360 0.000000 0.000000 0.000000 -31.165886 -31.539122 9.130183 -30.481302 -14.264063 2.263966 -12.984305 -63.459572 7.619788 0.000000 0.000000 0.000000 17.644819 24.121797 17.361080 44.528737 32.139353 6.646945 3.364412 65.008855 8.454997 0.000000 0.000000 0.000000 
-0.056272 0.938333 -0.066872 -2.624485 27.280143 4.091488 4.931674 -0.781727 -8.566217 -1.284982 0.095894 -3.777197 2.430266 9.444663 8.350337 0.000000 0.000000 0.000000 -3.980721 0.370781 -9.196610 1.996211 -0.372527 -2.573681 2.456734 3.863673 10.141626 0.000000 0.000000 0.000000 1.788302 -1.433379 14.578485 -4.941630 1.704486 5.140458 -7.322921 5.541269 3.957102 10.271584 -1.978492 -20.859621 0.000000 0.000000 0.000000 -31.294721 -31.783408 9.551881 -29.799029 -14.015874 2.111767 -13.560005 -63.373246 8.128116 0.000000 0.000000 0.000000 18.159701 23.986555 17.377114 44.581756 31.396280 6.296615 5.916486 64.014903 9.761480 0.000000 0.000000 0.000000 
-0.056952 0.938353 -0.066997 -2.347556 26.711024 4.359911 4.798302 -0.773201 -8.510657 -1.311822 0.099869 -3.734924 3.359955 10.732891 8.115697 0.000000 0.000000 0.000000 -3.856033 0.406609 -9.496662 1.624046 -0.315797 -2.536287 3.081917 5.000439 10.330593 0.000000 0.000000 0.000000 1.902428 -1.433441 14.516625 -4.829260 1.678264 4.992550 -7.464071 4.876613 4.012798 10.080554 -1.998369 -20.711547 0.000000 0.000000 0.000000 -31.237881 -31.687848 9.950695 -29.149210 -14.348337 2.013916 -12.394167 -62.979395 7.577426 0.000000 0.000000 0.000000 18.712823 24.135720 17.462897 44.186055 30.744132 5.877009 7.823562 63.092312 10.586575 0.000000 0.000000 0.000000 
-0.057787 0.938380 -0.067087 -2.222866 25.928091 4.593528 4.842183 -0.766940 -8.463162 -1.261904 0.105438 -3.942655 4.035240 12.024790 8.833500 0.000000 0.000000 0.000000 -3.544890 0.471683 -9.900299 1.216702 -0.251966 -2.375317 3.484736 5.690070 10.441888 0.000000 0.000000 0.000000 2.144792 -1.430409 14.300490 -4.777920 1.638016 5.402700 -7.679561 4.584642 3.661225 10.153188 -2.102401 -20.716190 0.000000 0.000000 0.000000 -31.151343 -31.886489 10.430399 -28.884842 -14.620986 1.983499 -9.461935 -63.010480 5.916919 0.000000 0.000000 0.000000 19.054692 24.170447 17.442419 43.996075 30.333109 5.674407 9.697287 62.011844 11.333728 0.000000 0.000000 0.000000 
-0.058789 0.938268 -0.067194 -2.021401 25.381537 4.822257 4.715614 -0.765991 -8.511521 -1.403419 0.111366 -4.001272 4.903850 13.261602 8.762411 0.000000 0.000000 0.000000 -3.378912 0.513692 -10.264632 0.925225 -0.205723 -2.208452 3.930068 6.560711 10.249517 0.000000 0.000000 0.000000 2.480642 -1.466765 14.226400 -4.780685 1.674303 5.173680 -7.760984 3.973755 3.752214 9.939428 -2.163345 -20.278526 0.000000 0.000000 0.000000 -31.666957 -31.988470 10.980986 -28.302433 -15.199752 1.973492 -3.668762 -62.324218 2.587266 0.000000 0.000000 0.000000 19.393444 24.079743 17.298320 43.574799 29.687970 5.296734 13.625737 61.761972 13.563561 0.000000 0.000000 0.000000 
-0.059934 0.938267 -0.067422 -1.844923 24.907760 5.185258 4.715136 -0.780890 -8.731809 -1.458684 0.115662 -4.018126 5.228981 13.910642 9.264243 0.000000 0.000000 0.000000 -3.317836 0.547412 -10.738419 0.893594 -0.200710 -2.231650 4.132469 6.872486 10.374971 0.000000 0.000000 0.000000 2.692611 -1.482093 14.115720 -4.569641 1.582607 5.179901 -7.803968 3.412885 3.798087 9.590066 -2.017452 -20.409172 0.000000 0.000000 0.000000 -31.573494 -32.232207 11.601596 -28.291643 -16.831177 2.188177 4.859621 -60.331880 -2.284984 0.000000 0.000000 0.000000 19.388081 24.096798 17.087906 43.126538 29.130702 5.012895 16.198765 62.501191 15.296616 0.000000 0.000000 0.000000 
-0.061093 0.938456 -0.067641 -1.710938 24.550489 5.602444 4.626762 -0.804623 -9.066653 -1.345105 0.116597 -4.070013 5.520232 14.471819 9.668266 0.000000 0.000000 0.000000 -3.441850 0.558419 -11.330516 1.249890 -0.244405 -2.066553 4.220616 7.040701 10.243075 0.000000 0.000000 0.000000 3.065434 -1.514538 13.918137 -4.488174 1.578004 4.814431 -7.822485 2.585395 3.920785 9.537612 -2.180890 -19.968814 0.000000 0.000000 0.000000 -31.471735 -32.585166 12.394524 -27.953041 -19.045850 2.465402 13.036013 -56.845647 -6.352964 0.000000 0.000000 0.000000 19.562932 23.819625 16.709460 41.948597 28.557926 4.570387 20.314839 62.968100 17.922612 0.000000 0.000000 0.000000 
